HIERARCHY
ROOT ui
{
	 OFFSET 0 0 0
	 CHANNELS 3 XPosition YPosition Z Position
	 EndSite
	 {
	 OFFSET 0 -1 0
	 }
}
ROOT li
{
	 OFFSET 0 0 0
	 CHANNELS 3 XPosition YPosition Z Position
	 EndSite
	 {
	 OFFSET 0 -1 0
	 }
}
ROOT ul
{
	 OFFSET 0 0 0
	 CHANNELS 3 XPosition YPosition Z Position
	 EndSite
	 {
	 OFFSET 0 -1 0
	 }
}
ROOT ll
{
	 OFFSET 0 0 0
	 CHANNELS 3 XPosition YPosition Z Position
	 EndSite
	 {
	 OFFSET 0 -1 0
	 }
}
ROOT tt
{
	 OFFSET 0 0 0
	 CHANNELS 3 XPosition YPosition Z Position
	 EndSite
	 {
	 OFFSET 0 -1 0
	 }
}
ROOT tb
{
	 OFFSET 0 0 0
	 CHANNELS 3 XPosition YPosition Z Position
	 EndSite
	 {
	 OFFSET 0 -1 0
	 }
}
ROOT td
{
	 OFFSET 0 0 0
	 CHANNELS 3 XPosition YPosition Z Position
	 EndSite
	 {
	 OFFSET 0 -1 0
	 }
}
ROOT v
{
	 OFFSET 0 0 0
	 CHANNELS 3 XPosition YPosition Z Position
	 EndSite
	 {
	 OFFSET 0 -1 0
	 }
}
ROOT bn
{
	 OFFSET 0 0 0
	 CHANNELS 3 XPosition YPosition Z Position
	 EndSite
	 {
	 OFFSET 0 -1 0
	 }
}
MOTION
Frames: 10
Frame Time: 0.002
-0.0037481110095977785	-0.0033683319091796877	0		0.6177734375	-2.778912841796875	0		-0.793922607421875	0.38580810546875	0		-0.25682305908203124	-3.2523662109375	0		1.4669166259765625	-1.4348662109375	0		2.869271728515625	-0.5317713623046875	0		4.25932275390625	0.07449584197998046	0		5.91888232421875	0.3708995971679688	0		0.01201194953918457	6.0293125	0		
-2.527250051498413E-4	2.48308002948761E-4	0		0.5633095092773438	-2.77425390625	0		-0.8654910888671875	0.38675521850585937	0		-0.2506661834716797	-3.269802734375	0		1.4997808837890625	-1.4677626953125	0		2.874290771484375	-0.555153564453125	0		4.27736865234375	0.05289703369140625	0		5.92830078125	0.3704768981933594	0		0.012368020057678222	6.0289833984375	0		
0.04001682662963867	-0.006768393039703369	0		0.6005029296875	-2.7872099609375	0		-0.7780726928710937	0.3878891296386719	0		-0.2296075439453125	-3.29048095703125	0		1.5269793701171874	-1.4795301513671875	0		2.906907470703125	-0.5990079956054688	0		4.28825	0.024448057174682618	0		5.9248232421875	0.3783078918457031	0		0.02984278678894043	6.037375	0		
-0.0315154972076416	0.0012350599765777587	0		0.6049348754882813	-2.783554931640625	0		-0.7785848388671875	0.39661761474609375	0		-0.2549692840576172	-3.2753017578125	0		1.563160400390625	-1.489433837890625	0		2.9453818359375	-0.5919351196289062	0		4.29831201171875	0.009038636207580567	0		5.925150390625	0.3780919494628906	0		0.03010929298400879	6.037095703125	0		
0.004782219886779785	0.00233781099319458	0		0.5980911254882812	-2.791677734375	0		-0.792390380859375	0.39260421752929686	0		-0.26384307861328127	-3.285397705078125	0		1.558052978515625	-1.51157958984375	0		2.937051513671875	-0.6260106811523437	0		4.3192197265625	-0.011541378021240235	0		5.9202724609375	0.36999078369140626	0		0.06144994354248047	6.044287109375	0		
-0.04801616287231445	0.0030510649681091307	0		0.5942262573242187	-2.796829833984375	0		-0.8021820068359375	0.39354293823242187	0		-0.2579000854492188	-3.3017353515625	0		1.6027391357421874	-1.5415899658203125	0		2.963980224609375	-0.6416878662109375	0		4.33300146484375	-0.034970806121826174	0		5.92046142578125	0.36982437133789064	0		0.04638412857055664	6.033326171875	0		
-0.0020364739894866944	-0.004973318099975586	0		0.5923330688476562	-2.79899365234375	0		-0.7971644897460938	0.38823968505859374	0		-0.25102053833007815	-3.317066650390625	0		1.6104925537109376	-1.5629178466796876	0		2.98249072265625	-0.6761946411132812	0		4.34459521484375	-0.06433881378173828	0		5.9205693359375	0.36968264770507814	0		0.027539670944213866	6.03945751953125	0		
-0.051928874969482425	-2.6706600189208983E-4	0		0.5752877807617187	-2.804866455078125	0		-0.7830712280273437	0.39179904174804686	0		-0.25400906372070314	-3.320197998046875	0		1.6659954833984374	-1.5940740966796876	0		3.016289794921875	-0.6899474487304688	0		4.3743173828125	-0.08200511932373047	0		5.921291015625	0.3525491638183594	0		-0.005616412162780761	6.03286376953125	0		
0.00811852264404297	0.004506261825561524	0		0.6022101440429688	-2.808498291015625	0		-0.792963623046875	0.4008084411621094	0		-0.2442207946777344	-3.331535400390625	0		1.6769429931640625	-1.5954105224609374	0		3.03267578125	-0.7223712768554688	0		4.39598046875	-0.09850599670410157	0		5.925681640625	0.377378173828125	0		0.0283712215423584	6.038099609375	0		
8.949940204620361E-4	-0.001503411054611206	0		0.589212158203125	-2.80339697265625	0		-0.8022265014648438	0.3928262939453125	0		-0.20045327758789064	-3.340453369140625	0		1.706375	-1.6220570068359375	0		3.084397216796875	-0.732397216796875	0		4.41348779296875	-0.119911865234375	0		5.92041796875	0.3693947143554687	0		0.028190536499023436	6.03796484375	0		
